HIERARCHY
ROOT Hips
{
	OFFSET 15.585500 22.159004 44.358299
	CHANNELS 6 Xposition Yposition Zposition Zrotation Xrotation Yrotation
	JOINT Chest
	{
		OFFSET -0.128500 0.160400 6.566002
		CHANNELS 6 Xposition Yposition Zposition Zrotation Xrotation Yrotation
		JOINT Chest2
		{
			OFFSET 0.000000 0.000000 3.554802
			CHANNELS 6 Xposition Yposition Zposition Zrotation Xrotation Yrotation
			JOINT Neck
			{
				OFFSET 0.000000 0.000000 8.267998
				CHANNELS 6 Xposition Yposition Zposition Zrotation Xrotation Yrotation
				JOINT Head
				{
					OFFSET 0.000000 0.000002 2.173897
					CHANNELS 6 Xposition Yposition Zposition Zrotation Xrotation Yrotation
					End Site
					{
						OFFSET 0.000000 0.000000 7.718697
					}
				}
			}
			JOINT LeftCollar
			{
				OFFSET 2.057500 0.117599 5.946301
				CHANNELS 6 Xposition Yposition Zposition Zrotation Xrotation Yrotation
				JOINT LeftShoulder
				{
					OFFSET 4.957699 0.000000 0.000000
					CHANNELS 6 Xposition Yposition Zposition Zrotation Xrotation Yrotation
					JOINT LeftElbow
					{
						OFFSET 0.000000 0.000000 -8.465500
						CHANNELS 6 Xposition Yposition Zposition Zrotation Xrotation Yrotation
						JOINT LeftWrist
						{
							OFFSET 0.000000 -0.000002 -14.594898
							CHANNELS 6 Xposition Yposition Zposition Zrotation Xrotation Yrotation
							End Site
							{
								OFFSET 0.000000 0.000000 -2.173901
							}
						}
					}
				}
			}
			JOINT RightCollar
			{
				OFFSET -3.048500 -0.728800 6.604099
				CHANNELS 6 Xposition Yposition Zposition Zrotation Xrotation Yrotation
				JOINT RightShoulder
				{
					OFFSET -3.710299 0.000000 0.000000
					CHANNELS 6 Xposition Yposition Zposition Zrotation Xrotation Yrotation
					JOINT RightElbow
					{
						OFFSET 0.000000 0.000000 -10.450901
						CHANNELS 6 Xposition Yposition Zposition Zrotation Xrotation Yrotation
						JOINT RightWrist
						{
							OFFSET 0.000000 0.000000 -12.539200
							CHANNELS 6 Xposition Yposition Zposition Zrotation Xrotation Yrotation
							End Site
							{
								OFFSET 0.000000 -0.000002 -2.173901
							}
						}
					}
				}
			}
		}
	}
	JOINT LeftHip
	{
		OFFSET 2.442599 -0.601400 -2.767502
		CHANNELS 6 Xposition Yposition Zposition Zrotation Xrotation Yrotation
		JOINT LeftKnee
		{
			OFFSET 0.000000 -0.000002 -17.033703
			CHANNELS 6 Xposition Yposition Zposition Zrotation Xrotation Yrotation
			JOINT LeftAnkle
			{
				OFFSET 0.000000 -0.000002 -19.318800
				CHANNELS 6 Xposition Yposition Zposition Zrotation Xrotation Yrotation
				End Site
				{
					OFFSET 0.000000 -8.281900 0.000000
				}
			}
		}
	}
	JOINT RightHip
	{
		OFFSET -3.126200 -0.601400 -2.283501
		CHANNELS 6 Xposition Yposition Zposition Zrotation Xrotation Yrotation
		JOINT RightKnee
		{
			OFFSET 0.000000 -0.000002 -16.919401
			CHANNELS 6 Xposition Yposition Zposition Zrotation Xrotation Yrotation
			JOINT RightAnkle
			{
				OFFSET 0.000000 -0.000002 -18.035900
				CHANNELS 6 Xposition Yposition Zposition Zrotation Xrotation Yrotation
				End Site
				{
					OFFSET 0.000000 -9.230099 0.000000
				}
			}
		}
	}
}
MOTION
Frames: 8
Frame Time: 0.041667
16.984501 37.262199 10.787395 -62.661904 18.193203 -16.434564 -0.128498 0.160396 6.566004 17.238918 4.644745 25.220482 0.000001 -0.000004 3.554809 -4.407828 -8.281848 -1.141716 -0.000007 0.000006 8.267994 25.389794 -5.085212 22.666017 0.000001 0.000003 2.173904 4.172192 -8.167894 1.682217 2.057499 0.117600 5.946306 2.573445 -8.001030 17.713380 4.957692 0.000005 0.000004 -18.106205 -12.259867 -112.936099 0.000002 -0.000002 -8.465502 514.517877 -121.160152 100.516595 0.000002 0.000002 -14.594895 -981.039741 6.210738 -275.838501 -3.048505 -0.728804 6.604102 43.656199 20.035195 12.412151 -3.710298 0.000002 -0.000002 -13.507273 -12.249879 127.620118 0.000003 -0.000003 -10.450890 1003.929836 -2.844250 1078.521841 0.000003 0.000005 -12.539200 116.796112 189.302627 -233.287570 2.442599 -0.601398 -2.767509 115.065260 -11.098559 115.268841 -0.000004 0.000001 -17.033703 -379.096290 37.507390 351.018147 0.000002 -0.000001 -19.318804 -232.208728 113.186555 548.174754 -3.126197 -0.601396 -2.283504 -83.166159 -53.759371 -79.445899 -0.000008 -0.000001 -16.919395 397.383275 -46.707405 -147.130703 -0.000005 -0.000001 -18.035896 207.696367 47.562043 -69.519933
16.998501 37.221901 10.759209 -62.315566 18.878310 -16.580522 -0.128494 0.160398 6.566001 16.808293 4.732111 25.399361 -0.000001 0.000002 3.554799 -4.197959 -8.493847 -1.130466 -0.000003 0.000005 8.268002 25.126032 -5.473141 23.018337 -0.000000 0.000000 2.173896 4.396848 -8.382109 1.505273 2.057500 0.117607 5.946310 2.467999 -8.647668 18.023529 4.957699 0.000002 0.000000 -17.874689 -11.426833 -113.207380 0.000005 0.000003 -8.465502 512.788528 -121.255980 96.884137 -0.000002 0.000001 -14.594898 -981.705384 5.727406 -278.377883 -3.048500 -0.728798 6.604100 45.309323 20.501431 10.410970 -3.710299 -0.000000 -0.000001 -15.259712 -12.918516 128.923564 0.000003 -0.000005 -10.450895 1003.014591 -2.895499 1078.548615 0.000005 0.000007 -12.539201 117.072543 189.044610 -232.726620 2.442601 -0.601398 -2.767506 115.217792 -10.845998 115.584873 -0.000001 -0.000003 -17.033703 -378.764507 37.242307 351.154970 0.000000 -0.000001 -19.318804 -231.482160 113.616550 548.519597 -3.126190 -0.601402 -2.283500 -84.982102 -53.596365 -81.270140 -0.000002 0.000006 -16.919395 398.024602 -46.391898 -146.959853 -0.000002 -0.000002 -18.035898 207.952199 47.750655 -69.471364
17.015499 37.171913 10.738293 -61.973312 19.579188 -16.674903 -0.128495 0.160398 6.566009 16.509817 4.772711 25.438104 -0.000003 -0.000001 3.554804 -4.146787 -8.645483 -1.139444 -0.000001 0.000004 8.267997 25.209178 -5.740797 23.148431 0.000001 -0.000000 2.173896 4.288716 -8.490950 1.690539 2.057507 0.117602 5.946304 2.634028 -9.304090 18.203503 4.957690 0.000010 -0.000001 -17.745730 -10.834643 -113.176979 -0.000005 0.000000 -8.465500 510.761109 -121.080444 93.265830 -0.000001 0.000008 -14.594897 -982.530799 5.215854 -280.275447 -3.048498 -0.728801 6.604100 44.387917 20.108326 10.526246 -3.710290 0.000000 -0.000004 -14.390765 -12.843856 129.686851 -0.000000 0.000003 -10.450894 1003.003226 -2.221413 1078.966185 -0.000002 0.000012 -12.539195 116.436666 188.904960 -232.563187 2.442599 -0.601398 -2.767505 115.400895 -10.711945 115.927298 -0.000002 -0.000003 -17.033703 -378.091351 36.970270 351.167510 -0.000005 -0.000001 -19.318804 -230.963912 114.030479 548.731005 -3.126200 -0.601400 -2.283501 -86.991461 -53.235194 -83.235397 -0.000004 -0.000002 -16.919392 398.842394 -46.014684 -146.905266 -0.000003 -0.000004 -18.035896 208.455038 47.901933 -69.647214
17.036400 37.120003 10.719105 -61.631829 20.243975 -16.775119 -0.128497 0.160402 6.566011 16.195473 4.736216 25.513897 0.000001 0.000003 3.554805 -3.985001 -8.817837 -1.133070 -0.000003 0.000001 8.267993 24.948816 -5.969377 23.311113 0.000003 0.000003 2.173897 4.381336 -8.351705 1.945550 2.057499 0.117597 5.946301 2.603621 -9.836377 18.319693 4.957693 0.000003 0.000000 -17.628267 -10.157789 -113.252746 -0.000000 0.000003 -8.465500 508.706643 -121.061019 89.904394 0.000002 0.000001 -14.594898 -983.411511 4.537219 -282.356332 -3.048504 -0.728803 6.604103 43.486821 20.053598 9.943671 -3.710297 -0.000000 0.000006 -12.939387 -13.649830 131.134550 0.000004 0.000001 -10.450884 1003.844158 -1.392523 1079.494241 -0.000001 0.000004 -12.539192 115.861278 188.819118 -232.514638 2.442601 -0.601396 -2.767503 115.529890 -10.431035 116.182173 -0.000000 0.000001 -17.033701 -377.552476 36.717164 351.292065 -0.000001 -0.000001 -19.318802 -230.616146 114.358971 548.930610 -3.126191 -0.601395 -2.283498 -88.768916 -52.997726 -85.007968 -0.000003 -0.000006 -16.919395 399.446757 -45.681586 -146.837879 -0.000004 -0.000001 -18.035898 208.852268 48.032875 -69.757863
17.064005 37.063408 10.697990 -61.279282 20.795081 -16.936677 -0.128497 0.160401 6.566006 16.008852 4.847821 25.539460 -0.000001 0.000004 3.554801 -3.830400 -8.992315 -1.123331 -0.000004 0.000004 8.268000 24.597547 -6.115305 23.475160 -0.000002 0.000004 2.173898 4.352911 -8.225869 2.075344 2.057500 0.117605 5.946303 2.750131 -10.329921 18.955397 4.957698 0.000006 0.000006 -17.589749 -9.353234 -113.414615 -0.000002 0.000004 -8.465506 506.769546 -120.448897 87.451126 -0.000002 -0.000002 -14.594900 -984.934151 2.839224 -283.989102 -3.048505 -0.728801 6.604101 42.535024 20.127946 8.823355 -3.710293 0.000002 -0.000005 -12.048350 -14.258003 132.626919 -0.000000 0.000001 -10.450896 1003.470957 -1.113316 1079.681880 0.000000 0.000005 -12.539197 116.033576 188.674386 -232.338939 2.442601 -0.601395 -2.767502 115.641946 -10.273062 116.372053 -0.000006 0.000001 -17.033705 -375.800505 36.217829 350.896843 0.000000 -0.000001 -19.318804 -232.432949 114.470876 550.824594 -3.126194 -0.601396 -2.283499 -90.447585 -52.736710 -86.621231 -0.000005 -0.000008 -16.919395 400.030519 -45.329824 -146.828604 -0.000006 0.000000 -18.035900 209.212383 48.131892 -69.872132
17.086203 37.012505 10.680992 -60.890488 21.311968 -17.015627 -0.128495 0.160398 6.566003 15.716832 4.846081 25.503383 0.000001 0.000002 3.554808 -3.709077 -9.139692 -1.119865 -0.000008 0.000001 8.267994 24.391376 -6.213390 23.550967 0.000002 -0.000002 2.173897 4.447359 -8.259761 2.175696 2.057496 0.117603 5.946301 3.062555 -10.782152 19.455249 4.957700 0.000005 -0.000001 -17.664829 -8.610186 -113.409540 -0.000002 0.000003 -8.465504 506.445686 -119.884710 87.633137 -0.000000 0.000008 -14.594900 -985.200146 1.756732 -283.648467 -3.048505 -0.728803 6.604098 43.554856 20.284782 9.041194 -3.710298 -0.000005 -0.000004 -13.559198 -14.160312 131.810521 0.000000 0.000001 -10.450893 1002.543581 -1.243551 1079.608223 0.000000 0.000005 -12.539197 116.572205 188.660535 -231.797769 2.442602 -0.601401 -2.767509 115.646154 -10.034249 116.525350 -0.000001 -0.000000 -17.033705 -375.033229 35.911861 350.975800 0.000003 -0.000001 -19.318802 -232.821423 114.776985 551.526191 -3.126195 -0.601396 -2.283504 -92.087220 -52.363577 -88.089264 -0.000003 -0.000006 -16.919395 400.454811 -45.031232 -146.957708 -0.000005 0.000000 -18.035896 209.504496 48.195177 -69.970282
17.110300 36.963799 10.658997 -60.574318 21.678763 -17.061847 -0.128505 0.160406 6.566010 15.389786 4.999239 25.514134 -0.000002 0.000000 3.554809 -3.575076 -9.288266 -1.118137 -0.000002 -0.000003 8.267999 24.173580 -6.413242 23.514029 0.000000 0.000002 2.173896 4.438036 -8.224302 2.276203 2.057500 0.117605 5.946300 3.384191 -11.256725 19.779610 4.957695 0.000004 0.000001 -17.760614 -8.006834 -113.322551 -0.000005 0.000000 -8.465500 505.880912 -119.317804 87.447902 0.000001 0.000001 -14.594900 -985.679680 0.732749 -283.551151 -3.048501 -0.728802 6.604099 43.891171 20.094999 7.095568 -3.710291 0.000001 -0.000004 -13.772177 -14.238870 133.587326 0.000002 -0.000001 -10.450892 1001.824608 -1.066543 1079.728544 -0.000004 0.000002 -12.539194 116.597217 188.649729 -231.230945 2.442596 -0.601393 -2.767504 115.712489 -9.823240 116.547397 -0.000003 0.000002 -17.033707 -374.200820 35.803544 351.090329 -0.000004 -0.000000 -19.318804 -233.497066 115.030808 551.808633 -3.126199 -0.601394 -2.283499 -93.361753 -52.016258 -89.178112 -0.000004 -0.000005 -16.919394 400.696272 -44.792295 -147.146986 -0.000002 0.000003 -18.035898 209.663530 48.221856 -70.019029
17.134201 36.918999 10.637302 -60.511221 21.994678 -17.010041 -0.128500 0.160394 6.566004 15.333126 5.235896 25.489257 -0.000002 -0.000005 3.554804 -3.442011 -9.446039 -1.111450 -0.000001 -0.000002 8.267998 23.849875 -6.562213 23.497480 -0.000000 -0.000003 2.173899 4.494988 -8.253458 2.163459 2.057507 0.117601 5.946306 3.568319 -11.666028 20.144243 4.957691 0.000006 0.000003 -17.806226 -7.360521 -113.341177 0.000001 0.000003 -8.465503 505.094948 -118.739342 87.109999 -0.000000 0.000001 -14.594893 -986.162055 -0.349617 -283.671034 -3.048501 -0.728802 6.604101 43.604908 20.957811 6.299605 -3.710295 0.000000 -0.000006 -13.741413 -15.335967 134.165583 0.000001 0.000000 -10.450893 1001.641231 -0.870412 1079.851269 0.000003 0.000004 -12.539202 116.700462 188.558437 -230.916238 2.442591 -0.601400 -2.767506 115.963607 -9.593270 116.500843 -0.000002 0.000001 -17.033703 -372.645641 35.553781 350.834880 -0.000005 -0.000002 -19.318802 -235.185516 115.076967 552.809830 -3.126204 -0.601405 -2.283502 -94.097337 -51.773148 -89.939924 -0.000002 -0.000002 -16.919395 400.728892 -44.630488 -147.334666 -0.000002 -0.000000 -18.035896 209.678693 48.220914 -69.999112
